<svg xmlns="http://www.w3.org/2000/svg" xmlns:xlink="http://www.w3.org/1999/xlink" width="326" height="326" viewBox="0 0 326 326">
  <defs>
    <linearGradient id="linear-gradient" y1="0.278" x2="1" y2="0.722" gradientUnits="objectBoundingBox">
      <stop offset="0" stop-color="#ff8f71"/>
      <stop offset="1" stop-color="#ff3e55"/>
    </linearGradient>
  </defs>
  <g id="illustration-editor-mobile" transform="translate(-40)">
    <g id="Grupo_3" data-name="Grupo 3" transform="translate(40)">
      <rect id="Rectángulo_8" data-name="Rectángulo 8" width="223" height="223" rx="111.5" transform="translate(52 53)" fill="#2d2e40" opacity="0.08"/>
      <rect id="Rectángulo_9" data-name="Rectángulo 9" width="251" height="251" rx="125.5" transform="translate(37.5 37.5)" fill="none" stroke="#2d2e40" stroke-width="1" opacity="0.5"/>
      <rect id="Rectángulo_10" data-name="Rectángulo 10" width="325" height="325" rx="162.5" transform="translate(0.5 0.5)" fill="none" stroke="#2d2e40" stroke-width="1" opacity="0.25"/>
    </g>
    <g id="Grupo_5" data-name="Grupo 5" transform="translate(40 54)">
      <g id="Grupo_4" data-name="Grupo 4">
        <rect id="Rectángulo_11" data-name="Rectángulo 11" width="326" height="217" rx="5"/>
        <rect id="Rectángulo_12" data-name="Rectángulo 12" width="326" height="217" rx="5" fill="url(#linear-gradient)"/>
      </g>
      <path id="Trazado_3" data-name="Trazado 3" d="M3,63.525H323a3,3,0,0,1,3,3V214a3,3,0,0,1-3,3H3a3,3,0,0,1-3-3V66.525a3,3,0,0,1,3-3Z" fill="#2d2e40"/>
      <rect id="Rectángulo_13" data-name="Rectángulo 13" width="68.95" height="69.707" rx="3" transform="translate(45.967 24.246)" fill="#fff"/>
      <ellipse id="Elipse_2" data-name="Elipse 2" cx="19.959" cy="20.003" rx="19.959" ry="20.003" transform="translate(60.483 39.399)" fill="#2d2e40"/>
      <rect id="Rectángulo_14" data-name="Rectángulo 14" width="153.625" height="165.478" rx="3" transform="translate(126.408 24.246)" fill="#fff"/>
    </g>
    <path id="Trazado_4" data-name="Trazado 4" d="M106,144q35.807-56.091,52.964-60.62c17.158-4.53,12.04,42.374,36.744,36.938s27.717-52.994,46.4-55.234,28.57,41.257,36.733,45.264q8.162,4.008,20.156-17.332" transform="translate(40 54)" fill="none" stroke="#707070" stroke-linecap="round" stroke-width="8" fill-rule="evenodd"/>
  </g>
</svg>
