<svg xmlns="http://www.w3.org/2000/svg" xmlns:xlink="http://www.w3.org/1999/xlink" width="328" height="326" viewBox="0 0 328 326">
  <defs>
    <linearGradient id="linear-gradient" y1="0.278" x2="1" y2="0.722" gradientUnits="objectBoundingBox">
      <stop offset="0" stop-color="#ff8f71"/>
      <stop offset="1" stop-color="#ff3e55"/>
    </linearGradient>
  </defs>
  <g id="illustration-laptop-mobile" transform="translate(-85 -17)">
    <g id="Grupo_12" data-name="Grupo 12" transform="translate(86 17)">
      <rect id="Rectángulo_30" data-name="Rectángulo 30" width="223" height="223" rx="111.5" transform="translate(52 53)" fill="#2d2e40" opacity="0.08"/>
      <rect id="Rectángulo_31" data-name="Rectángulo 31" width="251" height="251" rx="125.5" transform="translate(37.5 37.5)" fill="none" stroke="#2d2e40" stroke-width="1" opacity="0.5"/>
      <rect id="Rectángulo_32" data-name="Rectángulo 32" width="325" height="325" rx="162.5" transform="translate(0.5 0.5)" fill="none" stroke="#2d2e40" stroke-width="1" opacity="0.25"/>
    </g>
    <g id="Grupo_18" data-name="Grupo 18" transform="translate(85 85)">
      <rect id="Rectángulo_33" data-name="Rectángulo 33" width="252" height="173" rx="12" transform="translate(39 7)" fill="#535353"/>
      <rect id="Rectángulo_34" data-name="Rectángulo 34" width="250" height="170" rx="10" transform="translate(40 9)" fill="#1d1d25"/>
      <g id="Grupo_15" data-name="Grupo 15" transform="translate(47 15)">
        <rect id="Rectángulo_35" data-name="Rectángulo 35" width="237" height="157.94" rx="3" fill="url(#linear-gradient)"/>
        <rect id="Rectángulo_36" data-name="Rectángulo 36" width="237" height="129.709" rx="3" transform="translate(-0.152 28.352)" fill="#f9f6f6"/>
        <g id="Grupo_14" data-name="Grupo 14">
          <g id="Grupo_13" data-name="Grupo 13" transform="translate(33.478 17.615)">
            <rect id="Rectángulo_37" data-name="Rectángulo 37" width="49.951" height="120.635" rx="3" fill="#fff"/>
            <rect id="Rectángulo_38" data-name="Rectángulo 38" width="111.592" height="120.635" rx="3" transform="translate(58.453)" fill="#fff"/>
            <rect id="Rectángulo_39" data-name="Rectángulo 39" width="102.027" height="28.291" rx="3" transform="translate(63.235 6.405)" fill="#e7e7e7"/>
            <rect id="Rectángulo_40" data-name="Rectángulo 40" width="30.289" height="28.291" rx="3" transform="translate(63.235 40.568)" fill="#e7e7e7"/>
            <rect id="Rectángulo_41" data-name="Rectángulo 41" width="64.298" height="28.291" rx="3" transform="translate(100.964 40.568)" fill="#e7e7e7"/>
          </g>
        </g>
      </g>
      <g id="Grupo_16" data-name="Grupo 16" transform="translate(164)" opacity="0.098">
        <rect id="Rectángulo_42" data-name="Rectángulo 42" width="6.12" height="1" rx="0.5" fill="#4a5166"/>
        <rect id="Rectángulo_43" data-name="Rectángulo 43" width="1.44" height="1" rx="0.5" transform="translate(7.56)" fill="#4a5166"/>
      </g>
      <g id="Grupo_17" data-name="Grupo 17" transform="translate(0 178)">
        <path id="Trazado_7" data-name="Trazado 7" d="M3,0H324.953a3,3,0,0,1,3,3V7.6H0V3A3,3,0,0,1,3,0Z" fill="#52526f"/>
        <rect id="Rectángulo_44" data-name="Rectángulo 44" width="53.567" height="23.187" rx="10" transform="translate(137.193 -18.626)" fill="#2f2f47"/>
      </g>
      <path id="Trazado_8" data-name="Trazado 8" d="M0,186H328a3,3,0,0,1-3,3H3A3,3,0,0,1,0,186Z" fill="#393a56"/>
    </g>
  </g>
</svg>
